  <svg  xmlns="http://www.w3.org/2000/svg">

 <g id="svg_contend">
  
  <path fill="#3f3f3f" stroke="#000000" stroke-width="4" d="m122.46605,184.61739l-8.40535,21.63261l-2.21194,-11.39783l-4.86626,3.02391l1.99075,-32.79782l-5.52984,6.04782l1.76955,-28.84348l-5.75103,8.60652l2.21194,-16.05l-4.42387,2.79131l8.40535,-22.33043l-5.97222,2.79131l4.42387,-17.67826l-4.42387,2.32609l18.58025,-34.42609l-12.16564,-3.02392l32.07304,-22.79565l-13.71399,-3.48913l39.59363,-7.21087l-9.06894,-8.83913l39.59363,15.81739l-12.60803,-13.2587l19.46503,7.44348l-10.83847,-13.95652l22.56172,20.93478l-3.98148,-20.70218l11.05966,26.98261l17.69548,-13.72392l-13.05042,21.63261l31.18826,12.32826l-23.0041,0.46522l24.33128,15.81739l-7.07819,1.39565l8.18414,32.56522l-8.40536,-8.37392l5.52985,41.86956l-4.42386,1.86087l5.75104,21.40001l-9.73253,0.93044l-5.75102,26.75l-3.98149,-6.28044l-3.3179,7.67609l-2.8755,-9.53696l-4.20268,9.30435l-2.43312,-11.86305l-8.40535,10.00218l-0.22119,-14.88696l-3.7603,9.30435l7.52058,-55.82608l-7.96297,20.23695l-10.83847,-59.78043l-0.22119,36.98478l-6.41461,-29.54131l-1.10597,16.28261l-4.20267,-10.00217l-6.6358,57.91956l-1.10597,-41.17174l-4.20268,13.2587l0.66359,-30.00652l-17.69548,36.98478l-5.30864,-36.51956l0.22119,59.31522l-18.80144,-16.98044l9.06894,21.86522l-10.3961,-3.95435l-1.54836,30.23914l-6.6358,-13.95653l-2.65431,7.67609l-1.54836,-13.2587z" id="head"/>
  <g id="shoes_i">
   <g id="svg_1212">
    <path id="shoes_b_i" d="m36.622,295.16c0.028,-4.34799 0.056,-8.694 0.083,-13.04001c26.533,-11.728 52.983,-23.87201 79.515,-35.59999c25.61099,12.62498 31.845,8.83101 51.78,8.27901l0,40.15399l-131.378,0.207l0,0l0,0l0,0l0,0l0,0l0,0l0,0l0,0l0,0l0,0l0,0l0,0l0,0z" stroke-linecap="null" stroke-linejoin="null" fill="#29394b"/>
    <ellipse id="h1_i" class="hi" ry="3.72554" rx="3.00483" cy="259.45614" cx="100.89195" stroke-linecap="null" stroke-linejoin="null" fill="#000000"/>
    <ellipse id="h3_i" class="hi" ry="3.72554" rx="3.00483" cy="269.37427" cx="80.68582" stroke-linecap="null" stroke-linejoin="null" fill="#000000"/>
    <ellipse ry="3.72554" rx="3.00483" id="h5_i" class="hi" cy="279.01524" cx="59.32502" stroke-linecap="null" stroke-linejoin="null" fill="#000000"/>
    <path fill="#ffffff" stroke-linejoin="null" stroke-linecap="null" d="m2.7506,294.78671l33.92129,0l0,-12.58405c-24.30042,0.22488 -31.32362,5.49554 -33.92129,12.58405z" id="end_i"/>
    <rect fill="#e6e7e8" stroke-linejoin="null" stroke-linecap="null" x="2.7339" y="294.74532" width="165.2661" height="16.55797" id="sole_i"/>
    <rect id="sole_c_i" height="4.9674" width="98.49192" y="300.5406" x="69.50808" stroke-linecap="null" stroke-linejoin="null" fill="#29394b"/>
    <path id="svg_13" d="m57.1165,272.29001l3.6349,5.95999c0.6365,1.03601 -1.931,3.43201 -2.5468,2.42899l-3.6954,-6.02197c-0.6315,-1.02902 1.9503,-3.43802 2.6073,-2.367l0,0l0,0l0,0l0,0l0,0l0,0l0,0l0,0l0,0l0,0z" stroke-linecap="null" stroke-linejoin="null" fill="#ea1717"/>
    <ellipse id="h4_i" class="hi" ry="3.72554" rx="3.00483" cy="273.82423" cx="70.25235" stroke-linecap="null" stroke-linejoin="null" fill="#000000"/>
    <ellipse id="h2_i" class="hi" ry="3.72554" rx="3.00483" cy="264.11306" cx="90.87582" stroke-linecap="null" stroke-linejoin="null" fill="#000000"/>
    <path id="c5_i" class="ci" d="m57.12052,272.28l3.63457,5.95956c0.63644,1.03732 -1.93102,3.43274 -2.54652,2.42923l-3.69542,-6.02145c-0.63148,-1.02908 1.95029,-3.43808 2.60737,-2.36734l0,0l0,0l0,0l0,0l0,0l0,0l0,0l0,0l0,0z" stroke-linecap="null" stroke-linejoin="null" fill="#ffffff"/>
    <path id="c4_i" class="ci" d="m67.992,266.97l3.635,5.95999c0.636,1.03702 -1.931,3.43201 -2.547,2.42902l-3.695,-6.022c-0.632,-1.02899 1.95,-3.43802 2.60699,-2.367l0,0l0,0l0,0l0,0l0,0l0,0l0,0l0,0l0,0z" stroke-linecap="null" stroke-linejoin="null" fill="#ffffff"/>
    <path id="c3_i" class="ci" d="m78.1753,262.20901l3.6348,5.95999c0.636,1.03699 -1.9312,3.43298 -2.54749,2.42899l-3.69511,-6.021c-0.63139,-1.02899 1.9505,-3.43799 2.6077,-2.36798l0,0l0,0l0.0001,0z" stroke-linecap="null" stroke-linejoin="null" fill="#ffffff"/>
    <path id="c2_i" class="ci" d="m88.8587,257.44901l3.6348,5.95999c0.6364,1.03702 -1.931,3.43201 -2.5468,2.42902l-3.6954,-6.022c-0.63139,-1.02902 1.9504,-3.43802 2.60741,-2.367l0,0l0,0l0,0l0,0z" stroke-linecap="null" stroke-linejoin="null" fill="#ffffff"/>
    <path fill="#ffffff" stroke-linejoin="null" stroke-linecap="null" d="m99.22292,259.67242c0.00873,-0.79593 3.52266,-0.86285 3.50525,-0.12558l0,66.45126l-3.50525,0l0,-66.32568l0,0l0,0l0,0l0,0z" class="ci" id="c1_i"/>
   </g>
   <path fill="#000000" stroke-linejoin="null" stroke-linecap="null" d="m168.00003,255.59613l0,-5.04526c-0.57399,-1.26524 -4.43468,-0.96521 -5.59155,0.21942c-1.68625,1.56223 -4.92506,3.06055 -9.01517,4.76105c4.81369,-0.10837 9.79298,0.17316 14.60672,0.06479l0,0l0,0z" id="top_i"/>
   <path fill="#ffffff" stroke-linejoin="null" stroke-linecap="null" d="m116.33348,246.7272l8.93109,-9.93478c8.37444,5.45032 9.98822,8.00299 8.26338,16.66132l-17.19447,-6.7265l0,-0.00003z" id="svg_35"/>
   <rect fill="#bfbfbf" stroke-linejoin="null" stroke-linecap="null" x="99.80688" y="325.99848" width="2.3371" height="7.45109" id="pc_i"/>
   <path fill="#29394b" stroke-linejoin="null" stroke-linecap="null" opacity="0.5" d="m167.83307,254.59225" id="svg_37"/>
   <ellipse fill="#ffffff" stroke-linejoin="null" stroke-linecap="null" cx="145.63066" cy="275.70366" id="circle_i" rx="10.29914" ry="10.29694"/>
   <path fill="#29394b" stroke-linejoin="null" stroke-linecap="null" d="m143.632,272.83899l1.98198,-6.15198l2.02902,6.20398l6.09099,0.104l-4.70399,3.80499l1.634,6.10001l-5.05,-3.49298l-5.00301,3.59698l1.634,-6.099l-4.70399,-3.858l6.091,-0.20801l0,0l0,0l0,0l0,0l0,0l0,0l0,0l0,0z" id="start_i"/>
  </g>
  <g id="shoes_d">
   <path id="top_d" fill="#000000" stroke-linejoin="null" stroke-linecap="null" d="m181.76678,256.06955l0,-5.41527c0.56621,-1.35803 4.07816,-0.92865 5.2193,0.34285c1.66312,1.67676 5.1535,3.17764 9.18768,5.00281c-4.74792,-0.1163 -9.65901,0.18585 -14.40698,0.06961l0,0l0,0z"/>
   <path id="svg_50" fill="#ffffff" stroke-linejoin="null" stroke-linecap="null" d="m232.627,247.002l-8.80901,-9.93401c-8.25999,5.45001 -9.85199,8.00301 -8.15099,16.66101l16.95999,-6.72701l0,0l0,0l0,0l0,0l0,0l0,0z"/>
   <g id="svg_51">
    <path id="shoes_b_d" d="m311.24756,295.43506c-0.02747,-4.34741 -0.05493,-8.69373 -0.08228,-13.04004c-26.16989,-11.72827 -52.258,-23.8714 -78.42722,-35.59964c-23.28793,10.62439 -31.40863,8.83066 -51.07135,8.27875l0,40.1539l129.58084,0.20703l0,0l0,0l0,0l0,0l0,0l0,0l0,0z" stroke-linecap="null" stroke-linejoin="null" fill="#29394b"/>
    <ellipse id="h1_d" class="hd" ry="3.72554" rx="2.96372" cy="259.73136" cx="247.85676" stroke-linecap="null" stroke-linejoin="null" fill="#000000"/>
    <ellipse id="h3_d" class="hd" ry="3.72554" rx="2.96372" cy="269.6495" cx="267.78643" stroke-linecap="null" stroke-linejoin="null" fill="#000000"/>
    <ellipse id="h5_d" class="hd" ry="3.72554" rx="2.96372" cy="279.29047" cx="288.85497" stroke-linecap="null" stroke-linejoin="null" fill="#000000"/>
    <path id="end_d" fill="#ffffff" stroke-linejoin="null" stroke-linecap="null" d="m344.65521,295.06192l-33.457,0l0,-12.58401c23.96783,0.22485 30.89499,5.49554 33.457,12.58401z"/>
    <rect id="sole_d" fill="#e6e7e8" stroke-linejoin="null" stroke-linecap="null" x="181.66689" y="295.02054" width="163.00491" height="16.55797"/>
    <rect id="sole_c_d" height="4.9674" width="97.14434" y="300.81582" x="181.66689" stroke-linecap="null" stroke-linejoin="null" fill="#29394b"/>
    <path id="svg_59" d="m291.03323,272.56506l-3.58517,5.95966c-0.62784,1.0369 1.90463,3.43268 2.51193,2.4292l3.6449,-6.02185c0.62296,-1.02866 -1.92361,-3.43768 -2.57166,-2.367l0,0l0,0l0,0l0,0l0,0l0,0l0,0l0,0l0,0z" stroke-linecap="null" stroke-linejoin="null" fill="#ea1717"/>
    <ellipse id="h4_d" class="hd" ry="3.72554" rx="2.96372" cy="274.09945" cx="278.07714" stroke-linecap="null" stroke-linejoin="null" fill="#000000"/>
    <ellipse id="h2_d" class="hd" ry="3.72554" rx="2.96372" cy="264.38829" cx="257.73585" stroke-linecap="null" stroke-linejoin="null" fill="#000000"/>
    <path id="c5_d" class="cd" d="m291.02933,272.55524l-3.5849,5.95953c-0.62766,1.03735 1.90463,3.43277 2.51169,2.42926l3.64487,-6.02145c0.62296,-1.02908 -1.92361,-3.43808 -2.57166,-2.36734l0,0l0,0l0,0l0,0l0,0l0,0l0,0l0,0l0,0z" stroke-linecap="null" stroke-linejoin="null" fill="#ffffff"/>
    <path id="c4_d" class="cd" d="m280.3067,267.24506l-3.58521,5.95975c-0.62769,1.03705 1.90466,3.43256 2.51199,2.42917l3.64484,-6.02167c0.6228,-1.02887 -1.92355,-3.43793 -2.57162,-2.36725l0,0l0,0l0,0z" stroke-linecap="null" stroke-linejoin="null" fill="#ffffff"/>
    <path id="c3_d" class="cd" d="m270.26263,262.48468l-3.58505,5.95975c-0.62726,1.03702 1.90479,3.43256 2.51251,2.42917l3.64462,-6.02167c0.62265,-1.0289 -1.92377,-3.43796 -2.57208,-2.36725l0,0l0,0z" stroke-linecap="null" stroke-linejoin="null" fill="#ffffff"/>
    <path id="c2_d" class="cd" d="m259.72534,257.72412l-3.58508,5.95978c-0.62766,1.03702 1.90451,3.4325 2.51199,2.42908l3.64487,-6.02161c0.62268,-1.02887 -1.92377,-3.4379 -2.57178,-2.36725z" stroke-linecap="null" stroke-linejoin="null" fill="#ffffff"/>
    <path id="c1_d" class="cd" fill="#ffffff" stroke-linejoin="null" stroke-linecap="null" d="m249.50305,259.94766c-0.00882,-0.79593 -3.47461,-0.86285 -3.45746,-0.12561l0,66.45126l3.45746,0l0,-66.32565l0,0l0,0l0,0l0,0z"/>
   </g>
   <rect id="pc_d" fill="#bfbfbf" stroke-linejoin="null" stroke-linecap="null" x="246.62187" y="326.27371" width="2.30512" height="7.45109"/>
   <path id="svg_68" fill="#29394b" stroke-linejoin="null" stroke-linecap="null" opacity="0.5" d="m181.83151,254.86749"/>
   <ellipse id="circle_d" fill="#ffffff" stroke-linejoin="null" stroke-linecap="null" cx="203.73018" cy="275.97888" rx="10.15823" ry="10.29694"/>
   <path id="start_d" fill="#29394b" stroke-linejoin="null" stroke-linecap="null" d="m205.701,273.11401l-1.95401,-6.15201l-2.002,6.20398l-6.00699,0.104l4.64,3.80502l-1.612,6.09998l4.98099,-3.49298l4.93401,3.59698l-1.612,-6.099l4.64,-3.858l-6.008,-0.20798l0,0l0,0l0,0l0,0l0,0l0,0l0,0l0,0l0,0z"/>
  </g>
 </g>
</svg>